<svg id="Capa_1" data-name="Capa 1" xmlns="http://www.w3.org/2000/svg" viewBox="0 0 512 385">
  <defs>
    <style>
      .cls-1 {
        fill: none;
        stroke: #000;
        stroke-linecap: round;
        stroke-miterlimit: 10;
        stroke-width: 40px;
      }
    </style>
  </defs>
  <title>ojo-visto</title>
  <path d="M508.74,246C504.17,239.78,395.19,92.84,256,92.84S7.82,239.78,3.25,246a16.9,16.9,0,0,0,0,19.92c4.57,6.25,113.56,153.2,252.75,153.2s248.17-147,252.74-153.2A16.87,16.87,0,0,0,508.74,246ZM256,385.41C153.47,385.41,64.67,287.87,38.38,256,64.63,224.08,153.25,126.59,256,126.59c102.52,0,191.32,97.52,217.61,129.42C447.36,287.92,358.75,385.41,256,385.41Z" transform="translate(0 -59)"/>
  <path d="M256,154.73A101.27,101.27,0,1,0,357.27,256,101.39,101.39,0,0,0,256,154.73Zm0,168.79A67.52,67.52,0,1,1,323.51,256,67.6,67.6,0,0,1,256,323.52Z" transform="translate(0 -59)"/>
  <line class="cls-1" x1="375" y1="20" x2="125" y2="365"/>
</svg>
